<svg width="139" height="42" viewBox="0 0 139 42" fill="none" xmlns="http://www.w3.org/2000/svg">
<rect width="139" height="42" rx="21" fill="url(#paint0_linear_87_207)"/>
<path d="M19.0133 31L24.4795 13.8659H30.5798L36.046 31H31.5944L30.4403 26.8274H24.619L23.4649 31H19.0133ZM25.3292 23.9865H29.7428L27.5614 16.377H27.5233L25.3292 23.9865ZM25.0502 13.3459L27.0921 10.6952H29.9711L27.0033 13.3459H25.0502ZM48.8136 31L43.8927 13.8785H48.2809L51.9969 28.5269H51.9081L55.6241 13.8785H59.9996L55.0788 31H48.8136ZM62.4449 31V13.8785H66.7443V31H62.4449ZM77.1204 31.1015C74.0935 31.1015 72.0474 30.5561 70.9821 29.4654C69.9168 28.3747 69.3841 26.8274 69.3841 24.8236H73.7088C73.7088 26.2863 74.0175 27.2164 74.6347 27.6138C75.2519 28.0027 76.072 28.1972 77.0951 28.1972C78.1097 28.1972 78.9256 28.0407 79.5428 27.7279C80.1685 27.4151 80.4813 26.9374 80.4813 26.2948C80.4813 25.5423 80.0543 25.0265 79.2004 24.7475C78.3549 24.4685 77.1881 24.181 75.7 23.8851C73.341 23.3778 71.7008 22.8028 70.7792 22.1603C69.8576 21.5177 69.3968 20.465 69.3968 19.0023C69.3968 17.5565 69.9379 16.3178 71.0201 15.2863C72.1108 14.2548 74.1189 13.739 77.0444 13.739C79.9952 13.739 82.0075 14.3013 83.0813 15.4258C84.1635 16.5419 84.7046 18.0469 84.7046 19.9408H80.3926C80.3926 18.5119 80.0713 17.6072 79.4287 17.2267C78.7861 16.8378 77.9744 16.6433 76.9936 16.6433C75.9621 16.6433 75.1335 16.8082 74.5078 17.138C73.8822 17.4593 73.5693 17.9158 73.5693 18.5077C73.5693 19.3025 74.0005 19.8393 74.863 20.1184C75.7338 20.3889 76.9048 20.6764 78.376 20.9808C80.8111 21.4796 82.4767 22.0292 83.373 22.6295C84.2776 23.2214 84.73 24.2444 84.73 25.6987C84.73 27.1952 84.2015 28.4719 83.1447 29.5288C82.0878 30.5772 80.0797 31.1015 77.1204 31.1015ZM91.2678 31V16.8082H86.1695V13.8785H100.678V16.8082H95.5926V31H91.2678ZM99.6665 31L105.133 13.8659H111.233L116.699 31H112.248L111.093 26.8274H105.272L104.118 31H99.6665ZM105.982 23.9865H110.396L108.215 16.377H108.176L105.982 23.9865Z" fill="white"/>
<defs>
<linearGradient id="paint0_linear_87_207" x1="0" y1="21" x2="139" y2="21" gradientUnits="userSpaceOnUse">
<stop stop-color="#E5C06E"/>
<stop offset="1" stop-color="#CA9F4E"/>
</linearGradient>
</defs>
</svg>
