<svg width="23" height="18" viewBox="0 0 23 18" fill="none" xmlns="http://www.w3.org/2000/svg">
<path d="M9.86796 0.938147C9.56981 0.640093 9.1655 0.472655 8.74392 0.472655C8.32234 0.472655 7.91803 0.640093 7.61988 0.938147L0.465468 8.09256C0.167413 8.39071 -2.58833e-05 8.79502 -2.59201e-05 9.2166C-2.5957e-05 9.63818 0.167413 10.0425 0.465467 10.3406L7.61988 17.4951C7.91973 17.7847 8.32134 17.9449 8.7382 17.9413C9.15505 17.9377 9.55381 17.7705 9.84859 17.4757C10.1434 17.1809 10.3106 16.7822 10.3142 16.3653C10.3178 15.9484 10.1576 15.5468 9.86796 15.247L5.56418 10.8065L20.6679 10.8065C21.0896 10.8065 21.494 10.639 21.7921 10.3408C22.0903 10.0427 22.2578 9.63826 22.2578 9.2166C22.2578 8.79494 22.0903 8.39055 21.7921 8.09239C21.494 7.79424 21.0896 7.62673 20.6679 7.62673L5.56418 7.62673L9.86796 3.18622C10.166 2.88808 10.3334 2.48376 10.3334 2.06219C10.3334 1.64061 10.166 1.23629 9.86796 0.938147Z" fill="url(#paint0_linear_224_31)"/>
<defs>
<linearGradient id="paint0_linear_224_31" x1="22.2578" y1="9.207" x2="-2.55591e-05" y2="9.207" gradientUnits="userSpaceOnUse">
<stop stop-color="#E5C06E"/>
<stop offset="1" stop-color="#CA9F4E"/>
</linearGradient>
</defs>
</svg>
