<svg width="23" height="18" viewBox="0 0 23 18" fill="none" xmlns="http://www.w3.org/2000/svg">
<path d="M12.9953 17.4759C13.2935 17.774 13.6978 17.9414 14.1194 17.9414C14.5409 17.9414 14.9453 17.774 15.2434 17.4759L22.3978 10.3215C22.6959 10.0234 22.8633 9.61904 22.8633 9.19746C22.8633 8.77588 22.6959 8.37157 22.3978 8.07342L15.2434 0.919009C14.9435 0.629401 14.5419 0.469151 14.1251 0.472773C13.7082 0.476396 13.3095 0.643601 13.0147 0.938376C12.7199 1.23315 12.5527 1.63191 12.5491 2.04877C12.5455 2.46563 12.7057 2.86723 12.9953 3.16708L17.2991 7.60759L2.19534 7.60759C1.77368 7.60759 1.36929 7.7751 1.07113 8.07325C0.772972 8.37141 0.605469 8.7758 0.605469 9.19746C0.605469 9.61912 0.772972 10.0235 1.07113 10.3217C1.36929 10.6198 1.77368 10.7873 2.19534 10.7873L17.2991 10.7873L12.9953 15.2278C12.6973 15.526 12.5298 15.9303 12.5298 16.3519C12.5298 16.7735 12.6973 17.1778 12.9953 17.4759Z" fill="url(#paint0_linear_224_30)"/>
<defs>
<linearGradient id="paint0_linear_224_30" x1="0.605469" y1="9.20706" x2="22.8633" y2="9.20706" gradientUnits="userSpaceOnUse">
<stop stop-color="#E5C06E"/>
<stop offset="1" stop-color="#CA9F4E"/>
</linearGradient>
</defs>
</svg>
