<svg width="43" height="43" viewBox="0 0 43 43" fill="none" xmlns="http://www.w3.org/2000/svg">
<circle cx="21.5" cy="21.5" r="21.1641" fill="#1E1E1E" stroke="#383838" stroke-width="0.671875"/>
<path d="M13.2311 22.468C12.9331 22.7661 12.7656 23.1704 12.7656 23.592C12.7656 24.0136 12.9331 24.4179 13.2311 24.7161L20.3855 31.8705C20.6837 32.1685 21.088 32.336 21.5096 32.336C21.9311 32.336 22.3355 32.1685 22.6336 31.8705L29.788 24.7161C30.0776 24.4162 30.2379 24.0146 30.2343 23.5977C30.2306 23.1809 30.0634 22.7821 29.7687 22.4873C29.4739 22.1926 29.0751 22.0254 28.6583 22.0217C28.2414 22.0181 27.8398 22.1784 27.5399 22.468L23.0994 26.7718L23.0994 11.668C23.0994 11.2463 22.9319 10.8419 22.6338 10.5438C22.3356 10.2456 21.9312 10.0781 21.5096 10.0781C21.0879 10.0781 20.6835 10.2456 20.3854 10.5438C20.0872 10.8419 19.9197 11.2463 19.9197 11.668L19.9197 26.7718L15.4792 22.468C15.181 22.1699 14.7767 22.0025 14.3552 22.0025C13.9336 22.0025 13.5293 22.1699 13.2311 22.468Z" fill="url(#paint0_linear_198_86)"/>
<defs>
<linearGradient id="paint0_linear_198_86" x1="21.5" y1="10.0781" x2="21.5" y2="32.336" gradientUnits="userSpaceOnUse">
<stop stop-color="#E5C06E"/>
<stop offset="1" stop-color="#CA9F4E"/>
</linearGradient>
</defs>
</svg>
