<svg width="58" height="58" viewBox="0 0 58 58" fill="none" xmlns="http://www.w3.org/2000/svg">
<circle cx="29" cy="29" r="29" fill="url(#paint0_linear_87_150)"/>
<path d="M23.4 38.175C21.525 38.175 20.1333 37.8167 19.225 37.1C18.3167 36.375 17.8625 35.2583 17.8625 33.75V25.4125C17.8625 23.9042 18.3125 22.7917 19.2125 22.075C20.1208 21.3583 21.5167 21 23.4 21C25.275 21 26.6625 21.3625 27.5625 22.0875C28.4708 22.8042 28.925 23.9125 28.925 25.4125V33.75C28.925 35.2583 28.475 36.375 27.575 37.1C26.675 37.8167 25.2833 38.175 23.4 38.175ZM23.4 36.4C24.45 36.4 25.2083 36.1708 25.675 35.7125C26.15 35.2542 26.3875 34.5583 26.3875 33.625V25.5375C26.3875 24.6042 26.15 23.9125 25.675 23.4625C25.2083 23.0042 24.45 22.775 23.4 22.775C22.325 22.775 21.5542 23 21.0875 23.45C20.6292 23.9 20.4 24.5958 20.4 25.5375V33.625C20.4 34.5667 20.6333 35.2667 21.1 35.725C21.575 36.175 22.3417 36.4 23.4 36.4ZM30.9502 38V36.475C30.9502 35.3917 31.3294 34.3542 32.0877 33.3625C32.8544 32.3625 34.0627 31.3708 35.7127 30.3875C37.2044 29.4542 38.2252 28.6292 38.7752 27.9125C39.3335 27.1875 39.6127 26.3042 39.6127 25.2625C39.6127 24.3375 39.3585 23.6917 38.8502 23.325C38.3502 22.9583 37.621 22.775 36.6627 22.775C35.6294 22.775 34.8377 23.0667 34.2877 23.65C33.7377 24.2333 33.4627 25.3333 33.4627 26.95H30.9252C30.9252 25.1 31.3335 23.6458 32.1502 22.5875C32.9752 21.5292 34.4794 21 36.6627 21C38.8294 21 40.2877 21.4125 41.0377 22.2375C41.7877 23.0625 42.1627 24.0625 42.1627 25.2375C42.1627 26.6625 41.746 27.8708 40.9127 28.8625C40.0794 29.8458 38.9794 30.8083 37.6127 31.75C36.1877 32.675 35.1669 33.4917 34.5502 34.2C33.9335 34.9083 33.6252 35.5833 33.6252 36.225H42.1502V38H30.9502Z" fill="#1E1E1E"/>
<defs>
<linearGradient id="paint0_linear_87_150" x1="0" y1="29" x2="58" y2="29" gradientUnits="userSpaceOnUse">
<stop stop-color="#E5C06E"/>
<stop offset="1" stop-color="#CA9F4E"/>
</linearGradient>
</defs>
</svg>
