<svg width="58" height="58" viewBox="0 0 58 58" fill="none" xmlns="http://www.w3.org/2000/svg">
<circle cx="29" cy="29" r="29" fill="url(#paint0_linear_87_157)"/>
<path d="M23.4 38.175C21.525 38.175 20.1333 37.8167 19.225 37.1C18.3167 36.375 17.8625 35.2583 17.8625 33.75V25.4125C17.8625 23.9042 18.3125 22.7917 19.2125 22.075C20.1208 21.3583 21.5167 21 23.4 21C25.275 21 26.6625 21.3625 27.5625 22.0875C28.4708 22.8042 28.925 23.9125 28.925 25.4125V33.75C28.925 35.2583 28.475 36.375 27.575 37.1C26.675 37.8167 25.2833 38.175 23.4 38.175ZM23.4 36.4C24.45 36.4 25.2083 36.1708 25.675 35.7125C26.15 35.2542 26.3875 34.5583 26.3875 33.625V25.5375C26.3875 24.6042 26.15 23.9125 25.675 23.4625C25.2083 23.0042 24.45 22.775 23.4 22.775C22.325 22.775 21.5542 23 21.0875 23.45C20.6292 23.9 20.4 24.5958 20.4 25.5375V33.625C20.4 34.5667 20.6333 35.2667 21.1 35.725C21.575 36.175 22.3417 36.4 23.4 36.4ZM36.7502 38.175C34.4919 38.175 32.9669 37.7042 32.1752 36.7625C31.3919 35.8125 31.0002 34.3542 31.0002 32.3875H33.5252C33.5252 34.0792 33.7877 35.175 34.3127 35.675C34.8377 36.175 35.6544 36.425 36.7627 36.425C37.871 36.425 38.6794 36.1833 39.1877 35.7C39.696 35.2167 39.9502 34.2958 39.9502 32.9375C39.9502 31.9958 39.6752 31.3458 39.1252 30.9875C38.5835 30.6208 37.5919 30.425 36.1502 30.4V28.775C37.5919 28.7417 38.5835 28.5292 39.1252 28.1375C39.6752 27.7375 39.9502 27.0792 39.9502 26.1625C39.9502 24.8542 39.6877 23.9583 39.1627 23.475C38.646 22.9833 37.846 22.7375 36.7627 22.7375C35.696 22.7375 34.8877 23 34.3377 23.525C33.796 24.05 33.5252 25.2417 33.5252 27.1H31.0002C31.0002 25.0083 31.4044 23.4708 32.2127 22.4875C33.0294 21.4958 34.5419 21 36.7502 21C39.0419 21 40.5669 21.4292 41.3252 22.2875C42.0919 23.1458 42.4752 24.3083 42.4752 25.775C42.4752 26.9417 42.1627 27.85 41.5377 28.5C40.921 29.15 39.9794 29.5 38.7127 29.55C39.9877 29.5833 40.9335 29.9125 41.5502 30.5375C42.1669 31.1542 42.4752 32.0417 42.4752 33.2C42.4752 34.775 42.096 36 41.3377 36.875C40.5877 37.7417 39.0585 38.175 36.7502 38.175Z" fill="#1E1E1E"/>
<defs>
<linearGradient id="paint0_linear_87_157" x1="0" y1="29" x2="58" y2="29" gradientUnits="userSpaceOnUse">
<stop stop-color="#E5C06E"/>
<stop offset="1" stop-color="#CA9F4E"/>
</linearGradient>
</defs>
</svg>
