<svg width="58" height="58" viewBox="0 0 58 58" fill="none" xmlns="http://www.w3.org/2000/svg">
<circle cx="29" cy="29" r="29" fill="url(#paint0_linear_87_164)"/>
<path d="M23.4 38.175C21.525 38.175 20.1333 37.8167 19.225 37.1C18.3167 36.375 17.8625 35.2583 17.8625 33.75V25.4125C17.8625 23.9042 18.3125 22.7917 19.2125 22.075C20.1208 21.3583 21.5167 21 23.4 21C25.275 21 26.6625 21.3625 27.5625 22.0875C28.4708 22.8042 28.925 23.9125 28.925 25.4125V33.75C28.925 35.2583 28.475 36.375 27.575 37.1C26.675 37.8167 25.2833 38.175 23.4 38.175ZM23.4 36.4C24.45 36.4 25.2083 36.1708 25.675 35.7125C26.15 35.2542 26.3875 34.5583 26.3875 33.625V25.5375C26.3875 24.6042 26.15 23.9125 25.675 23.4625C25.2083 23.0042 24.45 22.775 23.4 22.775C22.325 22.775 21.5542 23 21.0875 23.45C20.6292 23.9 20.4 24.5958 20.4 25.5375V33.625C20.4 34.5667 20.6333 35.2667 21.1 35.725C21.575 36.175 22.3417 36.4 23.4 36.4ZM37.6752 38V33.8125H30.6002V32.125L36.4377 21.125H40.1877V32.1375H42.3752V33.8125H40.1877V38H37.6752ZM33.1502 32.1375H37.6752V22.775H37.8252L33.1502 32.1375Z" fill="#1E1E1E"/>
<defs>
<linearGradient id="paint0_linear_87_164" x1="0" y1="29" x2="58" y2="29" gradientUnits="userSpaceOnUse">
<stop stop-color="#E5C06E"/>
<stop offset="1" stop-color="#CA9F4E"/>
</linearGradient>
</defs>
</svg>
