<svg width="58" height="58" viewBox="0 0 58 58" fill="none" xmlns="http://www.w3.org/2000/svg">
<circle cx="29" cy="29" r="29" fill="url(#paint0_linear_87_178)"/>
<path d="M23.4 38.175C21.525 38.175 20.1333 37.8167 19.225 37.1C18.3167 36.375 17.8625 35.2583 17.8625 33.75V25.4125C17.8625 23.9042 18.3125 22.7917 19.2125 22.075C20.1208 21.3583 21.5167 21 23.4 21C25.275 21 26.6625 21.3625 27.5625 22.0875C28.4708 22.8042 28.925 23.9125 28.925 25.4125V33.75C28.925 35.2583 28.475 36.375 27.575 37.1C26.675 37.8167 25.2833 38.175 23.4 38.175ZM23.4 36.4C24.45 36.4 25.2083 36.1708 25.675 35.7125C26.15 35.2542 26.3875 34.5583 26.3875 33.625V25.5375C26.3875 24.6042 26.15 23.9125 25.675 23.4625C25.2083 23.0042 24.45 22.775 23.4 22.775C22.325 22.775 21.5542 23 21.0875 23.45C20.6292 23.9 20.4 24.5958 20.4 25.5375V33.625C20.4 34.5667 20.6333 35.2667 21.1 35.725C21.575 36.175 22.3417 36.4 23.4 36.4ZM36.4377 38.15C34.1794 38.15 32.6835 37.5417 31.9502 36.325C31.2252 35.1083 30.8627 33.1 30.8627 30.3C30.8627 26.8167 31.2669 24.3958 32.0752 23.0375C32.8919 21.6792 34.4419 21 36.7252 21C38.8169 21 40.2002 21.4958 40.8752 22.4875C41.5502 23.4792 41.8877 24.525 41.8877 25.625H39.3502C39.3335 24.7667 39.1252 24.0667 38.7252 23.525C38.3252 22.975 37.6585 22.7 36.7252 22.7C35.6919 22.7 34.8794 23.125 34.2877 23.975C33.696 24.825 33.4002 27.0208 33.4002 30.5625C33.4002 33.0708 33.6627 34.6792 34.1877 35.3875C34.721 36.0875 35.5169 36.4375 36.5752 36.4375C37.6419 36.4375 38.4085 36.1417 38.8752 35.55C39.3502 34.95 39.5877 33.825 39.5877 32.175C39.5877 30.4583 39.3502 29.3458 38.8752 28.8375C38.4085 28.3292 37.6835 28.075 36.7002 28.075C35.7252 28.075 34.9419 28.3417 34.3502 28.875C33.7585 29.4083 33.4377 30.0542 33.3877 30.8125L32.1377 30.2125C32.171 29.2958 32.696 28.45 33.7127 27.675C34.7294 26.9 36.0085 26.5125 37.5502 26.5125C39.2252 26.5125 40.4127 26.9458 41.1127 27.8125C41.8127 28.6708 42.1627 30.0792 42.1627 32.0375C42.1627 34.0292 41.7835 35.5458 41.0252 36.5875C40.2752 37.6292 38.746 38.15 36.4377 38.15Z" fill="#1E1E1E"/>
<defs>
<linearGradient id="paint0_linear_87_178" x1="0" y1="29" x2="58" y2="29" gradientUnits="userSpaceOnUse">
<stop stop-color="#E5C06E"/>
<stop offset="1" stop-color="#CA9F4E"/>
</linearGradient>
</defs>
</svg>
