<svg width="58" height="58" viewBox="0 0 58 58" fill="none" xmlns="http://www.w3.org/2000/svg">
<circle cx="29" cy="29" r="29" fill="url(#paint0_linear_87_171)"/>
<path d="M23.4 38.175C21.525 38.175 20.1333 37.8167 19.225 37.1C18.3167 36.375 17.8625 35.2583 17.8625 33.75V25.4125C17.8625 23.9042 18.3125 22.7917 19.2125 22.075C20.1208 21.3583 21.5167 21 23.4 21C25.275 21 26.6625 21.3625 27.5625 22.0875C28.4708 22.8042 28.925 23.9125 28.925 25.4125V33.75C28.925 35.2583 28.475 36.375 27.575 37.1C26.675 37.8167 25.2833 38.175 23.4 38.175ZM23.4 36.4C24.45 36.4 25.2083 36.1708 25.675 35.7125C26.15 35.2542 26.3875 34.5583 26.3875 33.625V25.5375C26.3875 24.6042 26.15 23.9125 25.675 23.4625C25.2083 23.0042 24.45 22.775 23.4 22.775C22.325 22.775 21.5542 23 21.0875 23.45C20.6292 23.9 20.4 24.5958 20.4 25.5375V33.625C20.4 34.5667 20.6333 35.2667 21.1 35.725C21.575 36.175 22.3417 36.4 23.4 36.4ZM36.2502 38.15C34.2419 38.15 32.8335 37.6833 32.0252 36.75C31.2169 35.8167 30.8127 34.55 30.8127 32.95H33.3377C33.346 34.275 33.6002 35.1875 34.1002 35.6875C34.6002 36.1875 35.3544 36.4375 36.3627 36.4375C37.3627 36.4375 38.1252 36.1667 38.6502 35.625C39.1835 35.075 39.4502 33.8875 39.4502 32.0625C39.4502 30.4042 39.196 29.325 38.6877 28.825C38.1794 28.3167 37.471 28.0625 36.5627 28.0625C35.6127 28.0625 34.8419 28.3 34.2502 28.775C33.6585 29.2417 33.3544 29.8667 33.3377 30.65L31.8752 30.6C31.9585 29.2667 32.5419 28.2458 33.6252 27.5375C34.7169 26.8208 36.0044 26.4625 37.4877 26.4625C39.0627 26.4625 40.2127 26.8958 40.9377 27.7625C41.6627 28.6292 42.0252 30.05 42.0252 32.025C42.0252 34.1833 41.6002 35.7458 40.7502 36.7125C39.9002 37.6708 38.4002 38.15 36.2502 38.15ZM30.8127 30.65V21.125H41.6627V22.8875H33.3377V30.65H30.8127Z" fill="#1E1E1E"/>
<defs>
<linearGradient id="paint0_linear_87_171" x1="0" y1="29" x2="58" y2="29" gradientUnits="userSpaceOnUse">
<stop stop-color="#E5C06E"/>
<stop offset="1" stop-color="#CA9F4E"/>
</linearGradient>
</defs>
</svg>
