<svg width="30" height="41" viewBox="0 0 30 41" fill="none" xmlns="http://www.w3.org/2000/svg">
<path d="M15.0979 23.6582C14.383 23.6634 13.6904 23.8972 13.1308 24.3223C12.5711 24.7474 12.1765 25.3394 12.0099 26.0037C11.8434 26.6681 11.9144 27.3667 12.2118 27.988C12.5091 28.6093 13.0156 29.1176 13.6505 29.4317V33.0608H16.3063V29.5459C16.9919 29.2774 17.5588 28.7899 17.9102 28.1665C18.2616 27.5431 18.3757 26.8225 18.2331 26.1277C18.0905 25.4329 17.7 24.8069 17.1282 24.3565C16.5565 23.9062 15.8389 23.6593 15.0979 23.6582Z" fill="white"/>
<path d="M25.6011 16.5653V11.1344C25.6581 8.38328 24.5724 5.72258 22.5815 3.73452C20.5906 1.74646 17.8567 0.592941 14.9779 0.526367C12.0992 0.592941 9.36525 1.74646 7.37436 3.73452C5.38347 5.72258 4.29775 8.38328 4.35478 11.1344V16.5653H0.371094V38.1367C0.371094 38.8098 0.650899 39.4553 1.14896 39.9312C1.64701 40.4071 2.32252 40.6745 3.02688 40.6745H26.929C27.6333 40.6745 28.3089 40.4071 28.8069 39.9312C29.305 39.4553 29.5848 38.8098 29.5848 38.1367V16.5653H25.6011ZM7.01057 11.1344C6.95332 9.05625 7.75918 7.04091 9.25207 5.52874C10.745 4.01657 12.8035 3.13052 14.9779 3.06418C17.1524 3.13052 19.2109 4.01657 20.7038 5.52874C22.1967 7.04091 23.0026 9.05625 22.9453 11.1344V16.5653H7.01057V11.1344ZM3.02688 38.1367V19.1031H26.929V38.1367H3.02688Z" fill="white"/>
</svg>
