<svg width="36" height="41" viewBox="0 0 36 41" fill="none" xmlns="http://www.w3.org/2000/svg">
<path d="M17.8187 0.526367L0 6.20207V23.2292C0 32.634 7.97665 40.2563 17.8187 40.2563C27.6607 40.2563 35.6374 32.634 35.6374 23.2292V6.20207L17.8187 0.526367ZM32.2964 23.2292C32.2964 30.8692 25.8139 37.0637 17.8187 37.0637C9.82348 37.0637 3.341 30.8692 3.341 23.2292V8.59651L17.8187 3.71895L32.2964 8.59651V23.2292Z" fill="white"/>
<path d="M11.6183 18.7541C11.4634 18.6055 11.2794 18.4876 11.0767 18.4071C10.8741 18.3266 10.6568 18.2852 10.4373 18.2852C10.2179 18.2852 10.0006 18.3266 9.79789 18.4071C9.59523 18.4876 9.4112 18.6055 9.25637 18.7541C9.10083 18.9021 8.97741 19.0779 8.89319 19.2716C8.80898 19.4653 8.76562 19.6729 8.76562 19.8826C8.76562 20.0923 8.80898 20.3 8.89319 20.4937C8.97741 20.6873 9.10083 20.8632 9.25637 21.0111L15.2609 26.7489L15.3583 26.842C15.5048 26.9822 15.6787 27.0935 15.8702 27.1694C16.0617 27.2453 16.267 27.2843 16.4743 27.2843C16.6816 27.2843 16.8869 27.2453 17.0784 27.1694C17.2699 27.0935 17.4439 26.9822 17.5903 26.842L27.9613 16.9317C28.1081 16.7918 28.2245 16.6255 28.3039 16.4425C28.3833 16.2596 28.4242 16.0634 28.4242 15.8653C28.4242 15.6672 28.3833 15.471 28.3039 15.288C28.2245 15.1051 28.1081 14.9388 27.9613 14.7989L27.8314 14.6747C27.685 14.5345 27.511 14.4233 27.3195 14.3474C27.128 14.2715 26.9227 14.2324 26.7154 14.2324C26.5081 14.2324 26.3028 14.2715 26.1113 14.3474C25.9199 14.4233 25.7459 14.5345 25.5994 14.6747L16.472 23.3923L11.6183 18.7541Z" fill="white"/>
</svg>
