<svg width="67" height="67" viewBox="0 0 67 67" fill="none" xmlns="http://www.w3.org/2000/svg">
<circle cx="33.5002" cy="33.5" r="32.9766" fill="#1E1E1E" stroke="#383838" stroke-width="1.04688"/>
<path d="M20.6164 35.0082C20.152 35.4728 19.8911 36.1028 19.8911 36.7597C19.8911 37.4165 20.152 38.0465 20.6164 38.5111L31.764 49.6586C32.2285 50.1231 32.8585 50.3839 33.5154 50.3839C34.1723 50.3839 34.8023 50.1231 35.2668 49.6586L46.4144 38.5111C46.8656 38.0439 47.1153 37.4181 47.1097 36.7686C47.104 36.1191 46.8435 35.4977 46.3842 35.0384C45.9249 34.5791 45.3036 34.3186 44.6541 34.313C44.0045 34.3073 43.3788 34.557 42.9116 35.0083L35.9926 41.7141L35.9926 18.1804C35.9926 17.5234 35.7316 16.8933 35.2671 16.4287C34.8025 15.9641 34.1724 15.7031 33.5154 15.7031C32.8584 15.7031 32.2283 15.9641 31.7637 16.4287C31.2992 16.8933 31.0382 17.5234 31.0382 18.1804L31.0382 41.7141L24.1192 35.0082C23.6547 34.5438 23.0247 34.2829 22.3678 34.2829C21.7109 34.2829 21.081 34.5438 20.6164 35.0082Z" fill="url(#paint0_linear_87_217)"/>
<defs>
<linearGradient id="paint0_linear_87_217" x1="33.5004" y1="15.7031" x2="33.5004" y2="50.3839" gradientUnits="userSpaceOnUse">
<stop stop-color="#E5C06E"/>
<stop offset="1" stop-color="#CA9F4E"/>
</linearGradient>
</defs>
</svg>
