<svg width="43" height="41" viewBox="0 0 43 41" fill="none" xmlns="http://www.w3.org/2000/svg">
<path fill-rule="evenodd" clip-rule="evenodd" d="M8.50225 17.9958C6.15712 17.674 4.01202 16.5551 2.46039 14.8443C0.908765 13.1334 0.0546421 10.9454 0.0546875 8.68146L0.0546875 7.42683C0.0546875 5.00289 2.1134 3.03563 4.65003 3.03563H8.21077C8.80948 1.56771 10.301 0.526367 12.0499 0.526367H30.0741C30.904 0.526809 31.7144 0.766554 32.3993 1.21425C33.0843 1.66194 33.6119 2.29674 33.9132 3.03563H37.4739C40.0106 3.03563 42.0693 5.00289 42.0693 7.42683V8.68146C42.0693 10.9454 41.2152 13.1334 39.6636 14.8443C38.1119 16.5551 35.9668 17.674 33.6217 17.9958C33.0673 19.7221 32.1305 21.3142 30.8749 22.6638C29.6194 24.0133 28.0745 25.0888 26.3453 25.8172L26.7234 29.4456C26.7366 29.571 26.8022 29.7467 27.0228 29.9575C27.2486 30.1758 27.5926 30.384 28.0023 30.5271C28.7454 30.7855 29.6251 31.2146 30.3393 31.9523C31.0877 32.7302 31.5656 33.7665 31.5656 35.0287V36.9106H34.848C35.3703 36.9106 35.8713 37.1089 36.2406 37.4618C36.61 37.8148 36.8175 38.2934 36.8175 38.7926C36.8175 39.2917 36.61 39.7704 36.2406 40.1233C35.8713 40.4762 35.3703 40.6745 34.848 40.6745H7.27595C6.75362 40.6745 6.25269 40.4762 5.88335 40.1233C5.514 39.7704 5.30651 39.2917 5.30651 38.7926C5.30651 38.2934 5.514 37.8148 5.88335 37.4618C6.25269 37.1089 6.75362 36.9106 7.27595 36.9106H10.5583V35.0287C10.5583 33.7665 11.0363 32.7302 11.7873 31.9523C12.4963 31.2146 13.3786 30.7855 14.1217 30.5271C14.487 30.4063 14.821 30.212 15.1012 29.9575C15.3217 29.7442 15.3874 29.5735 15.4005 29.4456L15.7786 25.8172C14.0499 25.0886 12.5056 24.0129 11.2505 22.6634C9.99543 21.3138 9.05901 19.7219 8.50487 17.9958H8.50225ZM7.93242 6.79951H4.65003C4.47592 6.79951 4.30895 6.86561 4.18583 6.98325C4.06272 7.1009 3.99356 7.26046 3.99356 7.42683V8.68146C3.99356 11.1405 5.63738 13.2307 7.93242 14.0061V6.79951ZM19.6361 26.7983L19.321 29.8195C19.0768 32.1405 17.068 33.5081 15.4688 34.0626C15.1742 34.15 14.9046 34.3011 14.681 34.5042C14.5839 34.6046 14.4972 34.7376 14.4972 35.0312V36.9131H27.6268V35.0312C27.6268 34.7376 27.5401 34.6046 27.4429 34.5042C27.2194 34.301 26.9498 34.1499 26.6552 34.0626C25.056 33.5081 23.0472 32.1405 22.8056 29.822L22.4905 26.8008C21.5418 26.8989 20.5848 26.8989 19.6361 26.8008V26.7983ZM34.1915 14.0086V6.79951H37.4739C37.648 6.79951 37.815 6.86561 37.9381 6.98325C38.0612 7.1009 38.1304 7.26046 38.1304 7.42683V8.68146C38.1308 9.84928 37.7522 10.9885 37.0467 11.9421C36.3413 12.8957 35.3438 13.6168 34.1915 14.0061V14.0086ZM11.8713 4.46089C11.8713 4.36804 11.9501 4.29026 12.0499 4.29026H30.0741C30.1713 4.29026 30.2527 4.36553 30.2527 4.46089V14.3273C30.2527 16.6565 29.2844 18.8904 27.5608 20.5374C25.8372 22.1844 23.4995 23.1097 21.062 23.1097C18.6245 23.1097 16.2868 22.1844 14.5632 20.5374C12.8396 18.8904 11.8713 16.6565 11.8713 14.3273V4.46089Z" fill="white"/>
<path d="M21.06 6.54785L22.4749 10.7091H27.0537L23.3494 13.2809L24.7643 17.4422L21.06 14.8704L17.3557 17.4422L18.7706 13.2809L15.0663 10.7091H19.6451L21.06 6.54785Z" fill="white"/>
</svg>
